<svg xmlns="http://www.w3.org/2000/svg" viewBox="0 0 320 259"><defs><style>.cls-1{fill:#5d8cae;}.cls-1,.cls-2,.cls-3,.cls-4,.cls-5{stroke:#000;stroke-miterlimit:10;}.cls-2{fill:#fff;}.cls-3{fill:#dbb721;}.cls-4{fill:#c1272d;}.cls-5{fill:#bdccd4;}</style></defs><title>Asset 2</title><g id="Layer_2" data-name="Layer 2"><g id="cornhole"><rect class="cls-1" x="0.5" y="0.5" width="319" height="258" rx="12" ry="12"/><rect class="cls-2" x="94.5" y="21.5" width="138" height="218" rx="12" ry="12"/><circle class="cls-1" cx="164" cy="62" r="18.5"/><polygon class="cls-3" points="163.5 90.5 106.5 239.5 220.5 239.5 163.5 90.5"/><rect class="cls-4" x="90.5" y="88.5" width="25" height="25" rx="7" ry="7" transform="translate(-22.15 29.26) rotate(-14.62)"/><rect class="cls-4" x="76.5" y="123.5" width="25" height="25" rx="7" ry="7" transform="translate(96.9 -26.34) rotate(35.99)"/><rect class="cls-5" x="212.5" y="85.5" width="25" height="25" rx="7" ry="7" transform="matrix(0.97, -0.25, 0.25, 0.97, -17.45, 59.94)"/><rect class="cls-5" x="228.5" y="116.5" width="25" height="25" rx="7" ry="7" transform="translate(121.8 -116.99) rotate(35.99)"/></g></g></svg>