<svg xmlns="http://www.w3.org/2000/svg" viewBox="0 0 320 259"><defs><style>.cls-1{fill:#6b9362;}.cls-1,.cls-2{stroke:#000;stroke-miterlimit:10;}.cls-2{fill:#fff;}</style></defs><title>Asset 1</title><g id="Layer_2" data-name="Layer 2"><g id="volleyball"><rect class="cls-1" x="0.5" y="0.5" width="319" height="258" rx="12" ry="12"/><path class="cls-2" d="M66.5,132a98,98,0,1,0,98-98c-43.75,0-79.58,31.32-92.4,65.26A87.82,87.82,0,0,0,66.5,132Z"/><path class="cls-2" d="M73,103a22.75,22.75,0,0,0,7,5c4.2,1.9,7.94,2,18,1,10.78-1,16.15-1.61,23-3a136.57,136.57,0,0,0,16-4c3-1,15-3,15-3a9.58,9.58,0,0,0,2-3c3.38-7.47,7.36-14.65,11-22,1.33-2.68,7.47-15.07,20-21a37.83,37.83,0,0,1,21-3"/><path class="cls-2" d="M221,55"/><path class="cls-2" d="M110,106a115.12,115.12,0,0,1,11-27,118.41,118.41,0,0,1,39-41"/><path class="cls-2" d="M87,108a74.21,74.21,0,0,1,1-12c2.2-13.27,7-24,12-30"/><path class="cls-2" d="M72,144c4.59.43,11.95,1,21,1,6.09,0,39-.19,63-7,8.12-2.31,16.76-2.18,25-4a8.45,8.45,0,0,1,5,0c7.23,2.64,10.92,18.6,5,28-1.42,2.25-3.4,4.14-11,8a152.32,152.32,0,0,1-33,12,203.24,203.24,0,0,1-28,5,192.31,192.31,0,0,1-22,1"/><path class="cls-2" d="M109,211a114.59,114.59,0,0,0,29,1c9.55-.91,19.19-1.83,31-6,7.17-2.53,10.82-4.74,17-4s7.31,3.59,15,5a34.55,34.55,0,0,0,17-1c6.78-2.28,10.73-6.39,16-12a87,87,0,0,0,15-22"/><path class="cls-2" d="M219,202a106.59,106.59,0,0,0,5-33c-.14-17.68-4.74-30.82-9-43a175.7,175.7,0,0,0-15-32,137.37,137.37,0,0,0-16-22c-3.11-3.41-5.91-6.1-8-8"/><path class="cls-2" d="M249,170a113.93,113.93,0,0,0-6-63,111.94,111.94,0,0,0-20-33,101,101,0,0,0-18-16,95.83,95.83,0,0,0-10-6"/><path class="cls-2" d="M157,98c6.49,8.65,12.87,18,19,28q1.53,2.51,3,5"/><path class="cls-2" d="M192,168a58.26,58.26,0,0,1-2,31"/></g></g></svg>